<svg xmlns="http://www.w3.org/2000/svg" xmlns:xlink="http://www.w3.org/1999/xlink" viewBox="0 0 800 800" width="800" height="800" style="width: 100%; height: 100%; transform: translate3d(0px, 0px, 0px);" preserveAspectRatio="xMidYMid meet"><defs><clipPath id="__lottie_element_1816"><rect width="800" height="800" x="0" y="0"></rect></clipPath></defs><g clip-path="url(#__lottie_element_1816)"><g style="display: block;" transform="matrix(0,0,0,0,461,565.5)" opacity="1"><g opacity="1" transform="matrix(1,0,0,1,0,0)"><path fill="rgb(155,60,130)" fill-opacity="1" d=" M105.24853515625,-34.97512435913086 C102.58694458007812,-37.64691925048828 81.01702880859375,-28.294662475585938 48.655296325683594,-17.726327896118164 C27.242666244506836,-10.410350799560547 10.967944145202637,4.260742664337158 0.24960541725158691,16.59000015258789 C-11.191323280334473,6.540595531463623 -22.40948486328125,-6.312675952911377 -49.52207565307617,-17.515262603759766 C-77.36664581298828,-27.316377639770508 -104.96160888671875,-38.993019104003906 -105.66957092285156,-33.80317687988281 C-107.97801208496094,-31.04215431213379 -88.66222381591797,-25.184593200683594 -48.679100036621094,-6.053093433380127 C-38.73781204223633,-1.7543286085128784 -17.537534713745117,13.69890022277832 -10.136425971984863,21.966808319091797 C-3.7710764408111572,29.046998977661133 -0.7400000095367432,34.40299987792969 6.736999988555908,25.715999603271484 C16.07900047302246,14.86299991607666 25.008113861083984,3.7204957008361816 54.6573371887207,-9.618897438049316 C96.0116195678711,-28.000335693359375 109.42313385009766,-29.664154052734375 105.24853515625,-34.97512435913086z"></path></g></g><g style="display: none;" transform="matrix(0.6234622001647949,0,0,0.6234622001647949,681.1717529296875,37.427452087402344)" opacity="0.0625"><g opacity="1" transform="matrix(1,0,0,1,0,0)"><path fill="rgb(155,60,130)" fill-opacity="1" d=" M106.4695816040039,-0.651153564453125 C102.24275970458984,-2.9933435916900635 108.19393920898438,19.071603775024414 56.29906463623047,7.326757431030273 C28.777982711791992,0.5131865739822388 9.843954086303711,3.093024730682373 0.04370991140604019,17.00157928466797 C-11.240946769714355,2.460658311843872 -30.08501434326172,0.1802988350391388 -57.674110412597656,5.809496879577637 C-100.1124038696289,13.793924331665039 -102.5923080444336,-1.9869567155838013 -106.6003646850586,-1.1825131177902222 C-111.16471099853516,-0.16380320489406586 -108.08221435546875,23.08415985107422 -55.3732795715332,16.751815795898438 C-42.81459045410156,15.134721755981445 -20.038230895996094,11.696803092956543 -9.64207649230957,22.924909591674805 C-2.963857650756836,30.171030044555664 0.5852852463722229,32.60808563232422 7.76727294921875,24.534526824951172 C16.851858139038086,14.336053848266602 28.1318416595459,13.523689270019531 58.248802185058594,18.639148712158203 C105.85304260253906,25.748334884643555 110.68865203857422,2.0153512954711914 106.4695816040039,-0.651153564453125z"></path></g></g><g style="display: none;" transform="matrix(-0.58198481798172,0,0,0.58198481798172,131.29957580566406,46.23904037475586)" opacity="0.05882352941176478"><g opacity="1" transform="matrix(1,0,0,1,0,0)"><path fill="rgb(155,60,130)" fill-opacity="1" d=" M107.40836334228516,-18.03399658203125 C107.6602554321289,-22.208621978759766 75.38836669921875,-25.651350021362305 48.34758758544922,-15.26002311706543 C30.958820343017578,-7.720561981201172 11.516481399536133,4.943857192993164 0.1904812902212143,16.7088565826416 C-10.174395561218262,6.345925331115723 -23.964841842651367,-3.5282716751098633 -49.99341583251953,-15.559342384338379 C-73.27560424804688,-24.514324188232422 -110.58096313476562,-22.822105407714844 -107.22054290771484,-16.651748657226562 C-105.57306671142578,-13.628771781921387 -85.15231323242188,-24.624298095703125 -44.67216110229492,-4.108791351318359 C-37.23874282836914,-0.156274676322937 -17.198806762695312,13.12086009979248 -9.737122535705566,22.157573699951172 C-3.6297638416290283,29.604158401489258 -0.643687903881073,33.98672866821289 6.796518802642822,25.517784118652344 C15.861666679382324,15.174481391906738 26.497705459594727,4.253951072692871 52.95307922363281,-8.671284675598145 C92.2081069946289,-26.30118751525879 108.72718811035156,-10.266685485839844 107.40836334228516,-18.03399658203125z"></path></g></g><g style="display: block;" transform="matrix(1,0,0,1,363.7509765625,405.875)" opacity="1"><g opacity="1" transform="matrix(1,0,0,1,0,0)"><path stroke-linecap="round" stroke-linejoin="round" fill-opacity="0" stroke="rgb(255,207,45)" stroke-opacity="1" stroke-width="7.2" d=" M-133,326.625 C-107.99700164794922,326.68701171875 -58.11600112915039,326.8110046386719 -33.125,326.875"></path></g></g><g style="display: block;" transform="matrix(0.9991382956504822,0.04150550439953804,-0.04150550439953804,0.9991382956504822,377.4541931152344,409.7205810546875)" opacity="1"><g opacity="1" transform="matrix(1,0,0,1,0,0)"><path stroke-linecap="round" stroke-linejoin="round" fill-opacity="0" stroke="rgb(255,207,45)" stroke-opacity="1" stroke-width="7.2" d=" M-83,-317.5 C-71.57594299316406,-144.418212890625 -76.11320495605469,119.91482543945312 -82.75,325.75"></path></g></g><g style="display: block;" transform="matrix(0.9965147972106934,-0.08341660350561142,0.08341660350561142,0.9965147972106934,402.82550048828125,419.918701171875)" opacity="1"><g opacity="1" transform="matrix(1,0,0,1,0,0)"><path fill="rgb(90,35,71)" fill-opacity="1" d=" M-44.40599822998047,-43.59400177001953 C-44.5,-36.75 -33.25,-24.375 -26.5,-16.625 C-19.75,-8.875 14.42637825012207,26.946718215942383 57.11337661743164,42.63471603393555 C81.94837951660156,51.76171875 104.69305419921875,45.73418045043945 104.76859283447266,38.826595306396484 C96.77802276611328,27.340465545654297 77.25,26.25 41.25,12.5 C5.25,-1.25 -44.3120002746582,-50.4379997253418 -44.40599822998047,-43.59400177001953z"></path></g></g><g style="display: block;" transform="matrix(0.9883706569671631,0.15206393599510193,-0.15206393599510193,0.9883706569671631,389.1680603027344,428.3848876953125)" opacity="1"><g opacity="1" transform="matrix(1,0,0,1,0,0)"><path fill="rgb(90,35,71)" fill-opacity="1" d=" M-43.125,101.25 C-52.50299835205078,108.19200134277344 -64.71700286865234,122.52200317382812 -66.52200317382812,130.0469970703125 C-68.3270034790039,137.57200622558594 -77.11766815185547,162.7982177734375 -65.26766967773438,170.63922119140625 C-53.889686584472656,169.164306640625 -48.77199935913086,138.39599609375 -45.26599884033203,128.6320037841797 C-41.7599983215332,118.86799621582031 -42.24700164794922,108.36900329589844 -43.125,101.25z"></path></g><g opacity="1" transform="matrix(1,0,0,1,0,0)"><g opacity="1" transform="matrix(1,0,0,1,0,0)"><path fill="rgb(243,172,161)" fill-opacity="1" d=" M-70,83 C-84.45700073242188,70.86799621582031 -110.91500091552734,111.36900329589844 -101.25,122.875 C-85.5,141.625 -56.625,149.375 -32.625,154.25 C-19.65999984741211,156.88400268554688 -1.2630000114440918,123.31400299072266 -12.75,116.75 C-29.375,107.25 -52.125,98 -70,83z"></path></g><g opacity="1" transform="matrix(1,0,0,1,0,0)"><path fill="rgb(154,59,129)" fill-opacity="1" d=" M-55,94.06300354003906 C-57.5629997253418,110.4530029296875 -77.41600036621094,123.9489974975586 -75.85399627685547,141.2760009765625 C-74.875,142.42799377441406 -59.56100082397461,148.3159942626953 -58.26499938964844,147.8679962158203 C-49.404998779296875,134.49600219726562 -43.6879997253418,116.68800354003906 -42.625,101 C-45.0629997253418,99.875 -51.4370002746582,96.18800354003906 -55,94.06300354003906z"></path></g><g opacity="1" transform="matrix(1,0,0,1,0,0)"><path fill="rgb(101,175,239)" fill-opacity="1" d=" M-36.1879997253418,104.43800354003906 C-40.250999450683594,114.68800354003906 -50,139.25 -53.9379997253418,149.125 C-45.125,152.25 -33.25,154.25 -26.75,155 C-16.674999237060547,156.16200256347656 -4.25,122.8759994506836 -12.25,117.06300354003906 C-16.58799934387207,113.91100311279297 -27.875,108.7509994506836 -36.1879997253418,104.43800354003906z"></path></g><g opacity="1" transform="matrix(1,0,0,1,0,0)"><path fill="rgb(255,255,255)" fill-opacity="1" d=" M-31.062999725341797,106.96900177001953 C-37.0629997253418,120.68800354003906 -43.1879997253418,137 -48.46900177001953,150.56300354003906 C-48.0629997253418,150.718994140625 -45.96900177001953,151.468994140625 -45.15599822998047,151.625 C-39.8120002746582,138 -34.125999450683594,124.06300354003906 -27.812999725341797,108.68800354003906 C-28.625999450683594,108.25 -30.312999725341797,107.43800354003906 -31.062999725341797,106.96900177001953z"></path></g></g><g opacity="1" transform="matrix(1,0,0,1,0,0)"><path fill="rgb(32,159,169)" fill-opacity="1" d=" M-23.25,-44.25 C-54.125,-42.75 -96.125,-35.25 -128.5,-12.5 C-145.3979949951172,-0.6259999871253967 -159.5019989013672,15.786999702453613 -160.875,41.25 C-162.25,66.75 -154.36000061035156,84.91200256347656 -141.67999267578125,103.20600128173828 C-129,121.5 -82.58389282226562,164.76393127441406 -65.20889282226562,170.62493896484375 C-72.87059020996094,162.0478973388672 -63.862998962402344,144.0469970703125 -55.89699935913086,131.91299438476562 C-50.14500045776367,123.1510009765625 -44.25,113 -43.125,101.125 C-73.75,81.25 -82.05599975585938,66.18099975585938 -85.91799926757812,58.96500015258789 C-92.58399963378906,46.507999420166016 -82.33699798583984,43.89699935913086 -70.47899627685547,40.20100021362305 C-59.1870002746582,36.68199920654297 -23.500999450683594,29.875999450683594 -14.437999725341797,27.937999725341797 C10.229000091552734,22.663999557495117 58.5260009765625,25.070999145507812 55.75,0 C52.435001373291016,-29.937000274658203 6.834000110626221,-45.71200180053711 -23.25,-44.25z"></path></g><g opacity="1" transform="matrix(1,0,0,1,0,0)"><path stroke-linecap="round" stroke-linejoin="round" fill-opacity="0" stroke="rgb(108,224,220)" stroke-opacity="1" stroke-width="1.5" d=" M-85.48613739013672,46.223426818847656 C-89.11067199707031,48.77058410644531 -90.73544311523438,54.32143020629883 -90.187255859375,59.24373245239258"></path></g></g><g style="display: block;" transform="matrix(0.9922137260437012,0.12454722076654434,-0.12454722076654434,0.9922137260437012,398.0135498046875,418.8770751953125)" opacity="1"><g opacity="1" transform="matrix(1,0,0,1,0,0)"><path fill="rgb(90,35,71)" fill-opacity="1" d=" M-84.22154998779297,218.46694946289062 C-81.22776794433594,227.47573852539062 -75.62836456298828,238.07618713378906 -61.68604278564453,249.2477569580078 C-47.74372100830078,260.4193115234375 -7.263643264770508,269.66632080078125 -7.023000717163086,261.593505859375 C-7.9653000831604,235.9778289794922 -31.869184494018555,248.03868103027344 -46.660675048828125,234.10939025878906 C-54.584320068359375,226.64715576171875 -72.50550842285156,214.02769470214844 -84.22154998779297,218.46694946289062z"></path></g><g opacity="1" transform="matrix(1,0,0,1,0,0)"><path fill="rgb(243,172,161)" fill-opacity="1" d=" M-73.5,205.25 C-82.43800354003906,216 -94.43800354003906,232.81199645996094 -98.18800354003906,237.5 C-112.04100036621094,254.8159942626953 -85.37200164794922,279.1300048828125 -68.75,266.81298828125 C-49.6870002746582,252.68800354003906 -44.75,246.75 -37.5,239.25 C-30.25,231.75 -61.21200180053711,190.47000122070312 -73.5,205.25z"></path></g><g opacity="1" transform="matrix(1,0,0,1,0,0)"><path fill="rgb(154,59,129)" fill-opacity="1" d=" M-72.9521484375,204.60523986816406 C-75.64014434814453,207.04324340820312 -80.0927963256836,213.49717712402344 -84.03079223632812,218.6851806640625 C-77.74748992919922,237.32679748535156 -59.62680435180664,250.22715759277344 -49.40256881713867,251.3079376220703 C-48.15256881713867,250.5579376220703 -40.636444091796875,242.98228454589844 -38.613441467285156,240.64727783203125 C-44.15144348144531,229.6412811279297 -61.664146423339844,213.2262420654297 -72.9521484375,204.60523986816406z"></path></g><g opacity="1" transform="matrix(1,0,0,1,0,0)"><path fill="rgb(101,175,239)" fill-opacity="1" d=" M-91.125,228.125 C-94.18800354003906,232.18800354003906 -97.21800231933594,236.18699645996094 -100.03099822998047,239.875 C-111.10099792480469,254.38999938964844 -79.58999633789062,273.739990234375 -68.93800354003906,266.875 C-66.125,265.06201171875 -62.0629997253418,261.7510070800781 -56.25,257.06298828125 C-65.125,249.31300354003906 -80.875,236.31300354003906 -91.125,228.125z"></path></g><g opacity="1" transform="matrix(1,0,0,1,0,0)"><path fill="rgb(255,255,255)" fill-opacity="1" d=" M-94.03099822998047,232.06300354003906 C-94.34400177001953,232.40699768066406 -95.125,233.5 -95.56300354003906,234.125 C-85.30000305175781,243.65699768066406 -71.56300354003906,253.75 -62.1879997253418,261.843994140625 C-61.53200149536133,261.375 -60.125999450683594,260.218994140625 -59.8129997253418,259.906005859375 C-70.43800354003906,250.93699645996094 -83.43699645996094,240.468994140625 -94.03099822998047,232.06300354003906z"></path></g><g opacity="1" transform="matrix(1,0,0,1,0,0)"><path fill="rgb(32,159,169)" fill-opacity="1" d=" M-32.1349983215332,120.98999786376953 C-39.1349983215332,143.4010009765625 -62.60674285888672,191.0155487060547 -84.4541015625,218.1944580078125 C-76.09262084960938,231.37710571289062 -66.30547332763672,239.8632354736328 -50.57747268676758,244.6419677734375 C-33.85451889038086,249.77293395996094 -8.265314102172852,248.42820739746094 -6.874677658081055,261.5315856933594 C-0.6008322834968567,243.293701171875 12.487204551696777,199.0139923095703 25.809999465942383,170.84442138671875 C45.73832702636719,128.76333618164062 -24.270000457763672,95.80999755859375 -32.1349983215332,120.98999786376953z"></path></g><g opacity="1" transform="matrix(1,0,0,1,0,0)"><path fill="rgb(32,159,169)" fill-opacity="1" d=" M-20.089000701904297,-59.340999603271484 C-13.538999557495117,-35.862998962402344 -14.107000350952148,-7.327000141143799 -12.550000190734863,16.764999389648438 C-9.515999794006348,63.07400131225586 -20.31100082397461,89.72200012207031 -32.15700149536133,121.0270004272461 C-40.67300033569336,143.6320037841797 10.012999534606934,208.59323120117188 26.010000228881836,170.6012420654297 C44.29800033569336,127.03423309326172 83.47599792480469,63.777000427246094 96.4540023803711,15.284000396728516 C100.93800354003906,-1.4730000495910645 97.34700012207031,-22.659000396728516 91.90699768066406,-33.42900085449219 C85.0469970703125,-47.0099983215332 -26.43199920654297,-82.07599639892578 -20.089000701904297,-59.340999603271484z"></path></g><g opacity="1" transform="matrix(1,0,0,1,0,0)"><path stroke-linecap="round" stroke-linejoin="round" fill-opacity="0" stroke="rgb(107,223,219)" stroke-opacity="1" stroke-width="1.5" d=" M66.07447814941406,14.828372955322266 C63.724178314208984,28.203229904174805 71.42903900146484,48.1723518371582 82.09955596923828,52.78147506713867"></path></g><g opacity="1" transform="matrix(1,0,0,1,0,0)"><path stroke-linecap="round" stroke-linejoin="round" fill-opacity="0" stroke="rgb(107,223,219)" stroke-opacity="1" stroke-width="1.5" d=" M-14.572978019714355,21.64948081970215 C-13.157288551330566,26.59337043762207 -12.5348482131958,33.041664123535156 -12.764594078063965,35.94533157348633"></path></g></g><g style="display: block;" transform="matrix(0.24869991838932037,0.025462768971920013,-0.025462768971920013,0.24869991838932037,36.073246002197266,-22.842849731445312)" opacity="1"><g opacity="1" transform="matrix(1,0,0,1,0,0)"><path fill="rgb(90,35,71)" fill-opacity="1" d=" M1204.60498046875,2546.39990234375 C1168.06494140625,2596.450927734375 1102.093994140625,2689.861083984375 1070.60498046875,2732.343994140625 C1148.7939453125,2774.44189453125 1254.364990234375,2826.152099609375 1344.1529541015625,2869.552001953125 C1371.375,2882.7099609375 1397.5672607421875,2883.084716796875 1430.4097900390625,2872.114013671875 C1430.2716064453125,2865.08251953125 1429.2830810546875,2851.362060546875 1426.614990234375,2834.331298828125 C1404.6021728515625,2764.1220703125 1382.571044921875,2709.93603515625 1311.135009765625,2659.4130859375 C1289.7750244140625,2644.305908203125 1263.2989501953125,2630.50390625 1244.092041015625,2611.1298828125 C1229.530029296875,2596.44189453125 1216.364013671875,2562.718017578125 1204.60498046875,2546.39990234375z"></path></g><g opacity="1" transform="matrix(1.1368000507354736,0,0,1.1368000507354736,1201.18798828125,2642.087890625)"><g opacity="1" transform="matrix(1,0,0,1,0,0)"><path stroke-linecap="round" stroke-linejoin="round" fill-opacity="0" stroke="rgb(255,255,255)" stroke-opacity="1" stroke-width="6" d=" M-48.308998107910156,-5.164000034332275 C-48.308998107910156,-5.164000034332275 -35.88999938964844,4.885000228881836 -8.029999732971191,1.565000057220459 C12.789999961853027,-0.8849999904632568 26.790000915527344,-5.885000228881836 50.790000915527344,6.114999771118164"></path></g></g><g opacity="1" transform="matrix(1,0,0,1,0,0)"><path fill="rgb(255,255,255)" fill-opacity="1" d=" M1110.39599609375,2682.220947265625 C1104.2110595703125,2691.737060546875 1082.1710205078125,2722.7509765625 1076.3599853515625,2732.2451171875 C1176.3990478515625,2785.66796875 1293.57177734375,2844.0576171875 1350.21728515625,2869.60986328125 C1375.9483642578125,2881.259033203125 1398.1712646484375,2878.6259765625 1429.3106689453125,2872.378173828125 C1429.781982421875,2868.16552734375 1428.7818603515625,2856.333984375 1428.51171875,2853.22216796875 C1401.6654052734375,2857.89306640625 1376.0419921875,2858.47900390625 1345.22705078125,2845.945068359375 C1315.302978515625,2833.77294921875 1301.4959716796875,2812.54296875 1278.3470458984375,2790.010986328125 C1258.1199951171875,2770.322998046875 1242.2889404296875,2775.6650390625 1214.0419921875,2757.966064453125 C1193.885986328125,2745.3369140625 1193.1610107421875,2708.887939453125 1171.3370361328125,2691.802001953125 C1155.4229736328125,2679.342041015625 1131.720947265625,2670.408935546875 1110.39599609375,2682.220947265625z"></path></g><g opacity="1" transform="matrix(1.1368000507354736,0,0,1.1368000507354736,1143.031982421875,2724.77099609375)"><g opacity="1" transform="matrix(1,0,0,1,0,0)"><path stroke-linecap="round" stroke-linejoin="round" fill-opacity="0" stroke="rgb(109,42,83)" stroke-opacity="1" stroke-width="5" d=" M-24.740999221801758,-13.923999786376953 C-20.236000061035156,-21.92799949645996 -5.507999897003174,-22.183000564575195 8.156000137329102,-14.493000030517578 C21.81999969482422,-6.802999973297119 29.246000289916992,5.920000076293945 24.740999221801758,13.923999786376953 C20.236000061035156,21.92799949645996 5.507999897003174,22.183000564575195 -8.156000137329102,14.493000030517578 C-21.81999969482422,6.802999973297119 -29.246000289916992,-5.920000076293945 -24.740999221801758,-13.923999786376953z"></path></g></g><g opacity="1" transform="matrix(1.1368000507354736,0,0,1.1368000507354736,1252.4100341796875,2719.14990234375)"><g opacity="1" transform="matrix(1,0,0,1,0,0)"><path stroke-linecap="round" stroke-linejoin="round" fill-opacity="0" stroke="rgb(91,36,72)" stroke-opacity="1" stroke-width="5" d=" M49.470001220703125,-51.994998931884766 C126.64399719238281,-3.99399995803833 144.9700469970703,71.60009765625 150.88096618652344,93.75904846191406 C157.6924285888672,119.29387664794922 156.3082733154297,135.56329345703125 156.3082733154297,135.56329345703125 C126.86731719970703,141.90371704101562 107.16197967529297,145.58084106445312 68.00511169433594,126.56539916992188 C0.18670544028282166,93.62647247314453 -158.69900512695312,12.795999526977539 -158.69900512695312,12.795999526977539 C-125.6989974975586,-37.20399856567383 -42.54399871826172,-149.76100158691406 -42.54399871826172,-149.76100158691406"></path></g></g><g opacity="1" transform="matrix(1,0,0,1,0,0)"><g opacity="1" transform="matrix(1.1368000507354736,0,0,1.1368000507354736,1314.3680419921875,2706.3359375)"><g opacity="1" transform="matrix(1,0,0,1,0,0)"><path stroke-linecap="round" stroke-linejoin="round" fill-opacity="0" stroke="rgb(255,207,45)" stroke-opacity="1" stroke-width="15" d=" M40,-3.312999963760376 C-4.809999942779541,-16.312999725341797 -40,7.228000164031982 -40,7.228000164031982"></path></g></g><g opacity="1" transform="matrix(1.1368000507354736,0,0,1.1368000507354736,1339.427978515625,2737.615966796875)"><g opacity="1" transform="matrix(1,0,0,1,0,0)"><path stroke-linecap="round" stroke-linejoin="round" fill-opacity="0" stroke="rgb(255,207,45)" stroke-opacity="1" stroke-width="15" d=" M39.42499923706055,-3.1470000743865967 C-4.775000095367432,-16.047000885009766 -39.42499923706055,7.063000202178955 -39.42499923706055,7.063000202178955"></path></g></g><g opacity="1" transform="matrix(1.1368000507354736,0,0,1.1368000507354736,1366.762939453125,2770.68408203125)"><g opacity="1" transform="matrix(1,0,0,1,0,0)"><path stroke-linecap="round" stroke-linejoin="round" fill-opacity="0" stroke="rgb(255,207,45)" stroke-opacity="1" stroke-width="15" d=" M35.16999816894531,-1.5959999561309814 C-4.650000095367432,-13.746000289916992 -35.16999816894531,5.604000091552734 -35.16999816894531,5.604000091552734"></path></g></g></g></g><g style="display: block;" transform="matrix(0.9965147972106934,-0.08341660350561142,0.08341660350561142,0.9965147972106934,402.82550048828125,419.918701171875)" opacity="1"><g opacity="1" transform="matrix(1,0,0,1,0,0)"><path fill="rgb(90,35,71)" fill-opacity="1" d=" M120.40065002441406,-165.41461181640625 C103.17123413085938,-168.65516662597656 95.59402465820312,-156.61134338378906 100.8907241821289,-156.77137756347656 C118.78145599365234,-157.31190490722656 128.0852813720703,-154.6302947998047 139.5479278564453,-143.5130157470703 C135.15383911132812,-156.67501831054688 130.3216552734375,-163.54818725585938 120.40065002441406,-165.41461181640625z"></path></g></g><g style="display: block;" transform="matrix(0.28320953249931335,-0.02370700053870678,0.02370700053870678,0.28320953249931335,452.1173400878906,242.65296936035156)" opacity="1"><g opacity="1" transform="matrix(1,0,0,1,0,0)"><path fill="rgb(244,173,162)" fill-opacity="1" d=" M38.38399887084961,-44.23400115966797 C41.01100158691406,-23.841999053955078 43.43000030517578,23.878999710083008 50.75299835205078,64.69499969482422 C64.10199737548828,147.03199768066406 7.802999973297119,224.44200134277344 -34.74700164794922,220.48399353027344 C-77.2969970703125,216.5260009765625 -139.97999572753906,153.62899780273438 -103.86699676513672,55.89500045776367 C-103.86699676513672,55.89500045776367 -78.40299987792969,-0.31200000643730164 -65.62699890136719,-52.595001220703125 C-52.85100173950195,-104.87799835205078 35.75699996948242,-64.6259994506836 38.38399887084961,-44.23400115966797z"></path></g><g opacity="1" transform="matrix(1,0,0,1,0,0)"><path fill="rgb(90,35,71)" fill-opacity="1" d=" M-3.631999969482422,-42.316001892089844 C-19.9060001373291,-20.983999252319336 12.576323509216309,23.715309143066406 44.57432174682617,17.00830841064453 C43.58432388305664,6.342308044433594 42.20574188232422,-9.66540813446045 40.412742614746094,-27.668407440185547 C39.70574188232422,-34.764408111572266 3.634000062942505,-51.84000015258789 -3.631999969482422,-42.316001892089844z"></path></g></g><g style="display: block;" transform="matrix(0.24999907612800598,-0.00040117723983712494,0.00040117723983712494,0.24999907612800598,-13.181859970092773,16.311845779418945)" opacity="1"><g opacity="1" transform="matrix(1.1368000507354736,0,0,1.1368000507354736,1830.1669921875,703.5120239257812)"><g opacity="1" transform="matrix(1,0,0,1,0,0)"><path fill="rgb(91,36,72)" fill-opacity="1" d=" M90.53099822998047,-81.59400177001953 C80.59100341796875,-89.54399871826172 -115.13899993896484,-26.493999481201172 -94.46900177001953,6.406000137329102 C-86.87899780273438,18.486000061035156 -74.46900177001953,31.4060001373291 -71.46900177001953,51.40599822998047 C-51.46900177001953,57.29600143432617 -3.86899995803833,96.24600219726562 -3.86899995803833,96.24600219726562 C-3.86899995803833,96.24600219726562 66.7509994506836,3.7660000324249268 97.43099975585938,-10.383999824523926 C97.53099822998047,-37.59400177001953 110.53099822998047,-65.59400177001953 90.53099822998047,-81.59400177001953z"></path></g></g><g opacity="1" transform="matrix(1.1368000507354736,0,0,1.1368000507354736,1855.6290283203125,909.85400390625)"><g opacity="1" transform="matrix(1,0,0,1,0,0)"><path fill="rgb(244,173,162)" fill-opacity="1" d=" M125.38300323486328,-69.61499786376953 C128.21299743652344,-58.224998474121094 124.04299926757812,-45.19499969482422 113.02300262451172,-36.3849983215332 C84.322998046875,-13.46500015258789 46.51599884033203,-15.85099983215332 41.24300003051758,-16.30500030517578 C-18.145999908447266,-21.423999786376953 -39.917999267578125,-71.78399658203125 -65.62699890136719,-52.595001220703125 C-36.17900085449219,-93.55599975585938 -37.57400131225586,-102.46800231933594 -34.459999084472656,-103.95500183105469 C-30.22100067138672,-105.97899627685547 -27.961000442504883,-113.33999633789062 -24.57699966430664,-124.00499725341797 C-19.74799919128418,-138.7310028076172 -12.201000213623047,-152.4199981689453 -2.3269999027252197,-164.36500549316406 C14.67300033569336,-184.15499877929688 50.733001708984375,-190.46499633789062 75.072998046875,-191.89500427246094 C78.03500366210938,-173.7220001220703 82.20099639892578,-155.76600646972656 87.54299926757812,-138.14500427246094 C96.7030029296875,-107.18499755859375 118.8030014038086,-96.21499633789062 125.38300323486328,-69.61499786376953z"></path></g></g><g opacity="1" transform="matrix(1,0,0,1,0,0)"><g opacity="1" transform="matrix(1.1283265352249146,0.1385410726070404,-0.1385410726070404,1.1283265352249146,1873.60595703125,732.0070190429688)"><g opacity="1" transform="matrix(1,0,0,1,0,0)"><path fill="rgb(91,36,72)" fill-opacity="1" d=" M-19.18400001525879,14.217000007629395 C-19.18400001525879,14.217000007629395 -19.43400001525879,12.347000122070312 -19.43400001525879,12.347000122070312 C-19.493999481201172,11.767000198364258 -19.534000396728516,11.196999549865723 -19.54400062561035,10.63700008392334 C-19.56999969482422,9.515000343322754 -19.518999099731445,8.392000198364258 -19.393999099731445,7.2769999504089355 C-19.145000457763672,5.052999973297119 -18.628000259399414,2.867000102996826 -17.854000091552734,0.7670000195503235 C-16.25200080871582,-3.6689999103546143 -13.619999885559082,-7.6620001792907715 -10.173999786376953,-10.883000373840332 C-8.380999565124512,-12.597000122070312 -6.36299991607666,-14.057000160217285 -4.173999786376953,-15.222999572753906 C-1.9479999542236328,-16.395000457763672 0.44200000166893005,-17.224000930786133 2.9159998893737793,-17.683000564575195 C5.335999965667725,-18.131000518798828 7.815000057220459,-18.163999557495117 10.246000289916992,-17.783000946044922 C12.63700008392334,-17.450000762939453 14.928999900817871,-16.607999801635742 16.965999603271484,-15.312999725341797 C19.57200050354004,-13.64799976348877 20.333999633789062,-10.1850004196167 18.66900062561035,-7.578999996185303 C18.667999267578125,-7.577000141143799 18.666000366210938,-7.574999809265137 18.665000915527344,-7.572999954223633 C18.349000930786133,-7.074999809265137 17.95800018310547,-6.630000114440918 17.5049991607666,-6.252999782562256 C17.5049991607666,-6.252999782562256 16.69499969482422,-5.603000164031982 16.69499969482422,-5.603000164031982 C15.095000267028809,-4.293000221252441 13.694999694824219,-3.4230000972747803 12.46500015258789,-2.4830000400543213 C11.234999656677246,-1.5429999828338623 10.164999961853027,-0.7429999709129333 9.154999732971191,0.007000000216066837 C7.15500020980835,1.5670000314712524 5.454999923706055,2.877000093460083 3.5450000762939453,4.416999816894531 C1.6349999904632568,5.956999778747559 -0.29499998688697815,7.756999969482422 -2.4549999237060547,9.807000160217285 C-2.4549999237060547,9.807000160217285 -5.864999771118164,13.07699966430664 -5.864999771118164,13.07699966430664 C-6.454999923706055,13.656999588012695 -7.085000038146973,14.237000465393066 -7.724999904632568,14.82699966430664 C-9.137999534606934,16.270000457763672 -10.913999557495117,17.305999755859375 -12.864999771118164,17.82699966430664 C-13.878000259399414,18.097000122070312 -14.942000389099121,18.117000579833984 -15.96500015258789,17.886999130249023 C-17.35700035095215,17.538999557495117 -18.482999801635742,16.51799964904785 -18.96500015258789,15.166999816894531 C-19.06800079345703,14.857999801635742 -19.141000747680664,14.539999961853027 -19.18400001525879,14.217000007629395z"></path></g></g><g opacity="1" transform="matrix(1,0,0,1,-0.01904296875,4.25201416015625)"><path fill="rgb(91,36,72)" fill-opacity="1" d=" M1942.4320068359375,692.3889770507812 C1931.875,691.0390014648438 1918.322998046875,695.3870239257812 1913.5050048828125,704.72998046875 C1911.261962890625,709.0800170898438 1911.6390380859375,715.5479736328125 1923.9119873046875,715.0869750976562 C1932.531982421875,714.7630004882812 1939.93603515625,714.4420166015625 1947.343994140625,717.3189697265625 C1946.6500244140625,711.9169921875 1945.22900390625,705.8660278320312 1944.8289794921875,703.969970703125 C1944.428955078125,702.073974609375 1944.4100341796875,700.4609985351562 1943.8570556640625,698.3159790039062 C1943.303955078125,696.1710205078125 1943.4510498046875,695.5499877929688 1942.4320068359375,692.3889770507812z"></path></g><g opacity="1" transform="matrix(1.1368000507354736,0,0,1.1368000507354736,1931.7750244140625,758.8759765625)"><g opacity="1" transform="matrix(1,0,0,1,0,0)"><path stroke-linecap="round" stroke-linejoin="round" fill-opacity="0" stroke="rgb(91,36,72)" stroke-opacity="1" stroke-width="5" d=" M-8.4399995803833,-16.645000457763672 C-8.4399995803833,-16.645000457763672 -9.5600004196167,-9.864999771118164 0.9700000286102295,-1.8650000095367432 C8.59000015258789,3.934999942779541 12.4399995803833,7.135000228881836 2.5199999809265137,16.645000457763672"></path><path fill="rgb(243,172,161)" fill-opacity="1" d=" M-8.4399995803833,-16.645000457763672 C-8.4399995803833,-16.645000457763672 -9.5600004196167,-9.864999771118164 0.9700000286102295,-1.8650000095367432 C8.59000015258789,3.934999942779541 12.4399995803833,7.135000228881836 2.5199999809265137,16.645000457763672"></path></g></g><g opacity="1" transform="matrix(1,0,0,1,0,0)"><path fill="rgb(90,35,71)" fill-opacity="1" d=" M1902.41796875,743.4580078125 C1898.593994140625,737.9959716796875 1889.8280029296875,751.1929931640625 1869.427978515625,757.4739990234375 C1851.0159912109375,763.1430053710938 1885.1070556640625,768.9329833984375 1900.5999755859375,761.4149780273438 C1905.635986328125,758.9710083007812 1908.9000244140625,752.718017578125 1902.41796875,743.4580078125z"></path></g><g opacity="1" transform="matrix(1,0,0,1,0,0)"><path fill="rgb(90,35,71)" fill-opacity="1" d=" M1944.33203125,733.85498046875 C1934.60205078125,737.85302734375 1918.9969482421875,732.5430297851562 1919.458984375,740.9320068359375 C1919.864013671875,748.2969970703125 1926.7659912109375,750.239013671875 1932.0670166015625,750.083984375 C1946.06103515625,749.676025390625 1950.3929443359375,731.364013671875 1944.33203125,733.85498046875z"></path></g><g opacity="1" transform="matrix(1,0,0,1,0,0)"><path fill="rgb(90,35,71)" fill-opacity="1" d=" M1907.31396484375,794.7210083007812 C1905.2049560546875,798.7529907226562 1906.9969482421875,810.760009765625 1920.512939453125,814.5260009765625 C1938.3990478515625,819.510009765625 1945.1619873046875,808.1060180664062 1945.592041015625,805.2150268554688 C1939.114990234375,809.4030151367188 1929.5389404296875,815.208984375 1920.4150390625,810.6580200195312 C1914.79296875,807.85400390625 1909.343017578125,802.14501953125 1907.31396484375,794.7210083007812z"></path><path stroke-linecap="round" stroke-linejoin="round" fill-opacity="0" stroke="rgb(154,59,129)" stroke-opacity="1" stroke-width="4" d=" M1907.31396484375,794.7210083007812 C1905.2049560546875,798.7529907226562 1906.9969482421875,810.760009765625 1920.512939453125,814.5260009765625 C1938.3990478515625,819.510009765625 1945.1619873046875,808.1060180664062 1945.592041015625,805.2150268554688 C1939.114990234375,809.4030151367188 1929.5389404296875,815.208984375 1920.4150390625,810.6580200195312 C1914.79296875,807.85400390625 1909.343017578125,802.14501953125 1907.31396484375,794.7210083007812z"></path></g></g><g opacity="1" transform="matrix(1,0,0,1,0,0)"><g opacity="1" transform="matrix(1,0,0,1,1600,1600)"><g opacity="1" transform="matrix(1,0,0,1,0,0)"><path fill="rgb(243,172,161)" fill-opacity="1" d=" M154.375,-841.25 C131.625,-844 101.625,-823.625 116.25,-787.5 C127.62999725341797,-759.3900146484375 168,-749.5 181.25,-749.875 C194.59300231933594,-750.2529907226562 213.42799377441406,-761.0269775390625 220.25,-772.5 C225.75,-781.75 229.75,-802.875 212,-807.625 C197.23800659179688,-811.5750122070312 179.5260009765625,-838.2100219726562 154.375,-841.25z"></path></g></g><g opacity="1" transform="matrix(1.1368000507354736,0,0,1.1368000507354736,1764.0909423828125,801.2249755859375)"><g opacity="1" transform="matrix(1,0,0,1,0,0)"><path stroke-linecap="round" stroke-linejoin="miter" fill-opacity="0" stroke-miterlimit="10" stroke="rgb(155,60,130)" stroke-opacity="1" stroke-width="5" d=" M-20.764999389648438,-11.347999572753906 C-20.764999389648438,-11.347999572753906 5.835000038146973,-17.92799949645996 20.764999389648438,11.961999893188477"></path></g></g></g><g opacity="1" transform="matrix(1,0,0,1,0,0)"><path stroke-linecap="round" stroke-linejoin="round" fill-opacity="0" stroke="rgb(154,59,129)" stroke-opacity="1" stroke-width="5" d=" M1781.25,849.75 C1789.375,851.5 1804.125,848.125 1809.25,844.25"></path></g><g opacity="1" transform="matrix(1,0,0,1,1600,1600)"><g opacity="1" transform="matrix(1,0,0,1,0,0)"><path fill="rgb(255,255,255)" fill-opacity="1" d=" M199,-1028 C167.125,-1017.75 140.75,-984.25 151.125,-959 C168.343994140625,-917.093017578125 290.4960021972656,-954.530029296875 282.5,-999.125 C279.25,-1017.25 246.67799377441406,-1043.33203125 199,-1028z"></path><path stroke-linecap="butt" stroke-linejoin="miter" fill-opacity="0" stroke-miterlimit="4" stroke="rgb(90,35,71)" stroke-opacity="1" stroke-width="5.6" d=" M199,-1028 C167.125,-1017.75 140.75,-984.25 151.125,-959 C168.343994140625,-917.093017578125 290.4960021972656,-954.530029296875 282.5,-999.125 C279.25,-1017.25 246.67799377441406,-1043.33203125 199,-1028z"></path></g><g opacity="1" transform="matrix(1,0,0,1,0,0)"><path fill="rgb(255,255,255)" fill-opacity="1" d=" M205.75,-999.125 C148.5780029296875,-980.52001953125 116.58699798583984,-951.468017578125 97.99099731445312,-930.3469848632812 C88,-919 90.23799896240234,-916.2449951171875 97.125,-909.125 C111.875,-893.875 130.25,-875.25 143.75,-861.125 C212.375,-882.625 279.625,-904.5 339,-927.875 C342.875,-944.625 347.6629943847656,-961.4249877929688 352.75,-982.5 C357.125,-1000.625 360.3269958496094,-1006.0490112304688 336.260986328125,-1009.7579956054688 C297.375,-1015.75 258.375,-1016.25 205.75,-999.125z"></path><path stroke-linecap="butt" stroke-linejoin="miter" fill-opacity="0" stroke-miterlimit="4" stroke="rgb(90,35,71)" stroke-opacity="1" stroke-width="5.6" d=" M205.75,-999.125 C148.5780029296875,-980.52001953125 116.58699798583984,-951.468017578125 97.99099731445312,-930.3469848632812 C88,-919 90.23799896240234,-916.2449951171875 97.125,-909.125 C111.875,-893.875 130.25,-875.25 143.75,-861.125 C212.375,-882.625 279.625,-904.5 339,-927.875 C342.875,-944.625 347.6629943847656,-961.4249877929688 352.75,-982.5 C357.125,-1000.625 360.3269958496094,-1006.0490112304688 336.260986328125,-1009.7579956054688 C297.375,-1015.75 258.375,-1016.25 205.75,-999.125z"></path></g></g><g opacity="1" transform="matrix(1.1368000507354736,0,0,1.1368000507354736,1860.7249755859375,805.4449462890625)"><g opacity="1" transform="matrix(1,0,0,1,-4.772000312805176,5.591000080108643)"><path fill="rgb(236,142,144)" fill-opacity="1" d=" M0,-22.40999984741211 C12.376999855041504,-22.40999984741211 22.40999984741211,-12.376999855041504 22.40999984741211,0 C22.40999984741211,12.376999855041504 12.376999855041504,22.40999984741211 0,22.40999984741211 C-12.376999855041504,22.40999984741211 -22.40999984741211,12.376999855041504 -22.40999984741211,0 C-22.40999984741211,-12.376999855041504 -12.376999855041504,-22.40999984741211 0,-22.40999984741211z"></path></g></g><g opacity="0" transform="matrix(1.0217491388320923,-0.49834033846855164,0.49834033846855164,1.0217491388320923,1984.45068359375,752.0807495117188)"><g opacity="1" transform="matrix(1,0,0,1,-4.772000312805176,5.591000080108643)"><path fill="rgb(236,142,144)" fill-opacity="1" d=" M-17.600000381469727,19.075000762939453 C-18.83099937438965,11.730999946594238 -19.55500030517578,7.498000144958496 -19.701000213623047,0.8080000281333923 C-19.874000549316406,-7.109000205993652 -19.805999755859375,-9.170999526977539 -18.281999588012695,-17.145000457763672 C-21.135000228881836,-6.000999927520752 -18.60300064086914,14.404999732971191 -17.600000381469727,19.075000762939453z"></path></g></g></g><g style="display: block;" transform="matrix(0.24995124340057373,0.004938160534948111,-0.004938160534948111,0.24995124340057373,386.67376708984375,408.9187316894531)" opacity="1"><g opacity="1" transform="matrix(1,0,0,1,0,0)"><path fill="rgb(255,255,255)" fill-opacity="1" d=" M378,-405 C426.5,-347 562.7160034179688,-258.05499267578125 675,-246 C838,-228.5 821.39599609375,-282.0369873046875 777.1209716796875,-359.8330078125 C717.7219848632812,-464.2030029296875 644.2570190429688,-528.6690063476562 578.447021484375,-579.9559936523438 C520.10302734375,-625.4240112304688 455.5559997558594,-665.3870239257812 364.53900146484375,-611.3480224609375"></path><path stroke-linecap="butt" stroke-linejoin="miter" fill-opacity="0" stroke-miterlimit="4" stroke="rgb(90,35,71)" stroke-opacity="1" stroke-width="4.5" d=" M378,-405 C426.5,-347 562.7160034179688,-258.05499267578125 675,-246 C838,-228.5 821.39599609375,-282.0369873046875 777.1209716796875,-359.8330078125 C717.7219848632812,-464.2030029296875 644.2570190429688,-528.6690063476562 578.447021484375,-579.9559936523438 C520.10302734375,-625.4240112304688 455.5559997558594,-665.3870239257812 364.53900146484375,-611.3480224609375"></path></g></g><g style="display: block;" transform="matrix(0.9965147972106934,-0.08341660350561142,0.08341660350561142,0.9965147972106934,402.82550048828125,419.918701171875)" opacity="1"><g opacity="1" transform="matrix(1,0,0,1,0,0)"><path fill="rgb(90,35,71)" fill-opacity="1" d=" M-5.75,-168.375 C-14.96399974822998,-167.375 -26.437000274658203,-164.18800354003906 -27.25,-150.5 C-12.875,-157.25 -6.315000057220459,-161.2010040283203 7,-157.125 C13.125,-155.25 10.375,-170.125 -5.75,-168.375z"></path></g><g opacity="1" transform="matrix(1,0,0,1,0,0)"><path fill="rgb(255,255,255)" fill-opacity="1" d=" M106.5,-116.09400177001953 C121.71155548095703,-71.76497650146484 99.58231353759766,15.47392463684082 104.38816833496094,38.50206756591797 C98.23994445800781,30.139171600341797 88.23200225830078,20.79400062561035 58.625,4.25 C24.958999633789062,-14.562000274658203 -12.791000366210938,-29.312000274658203 -44.625,-43.25 C-40.875,-80 -17.937000274658203,-104.63700103759766 -9.51200008392334,-125.16999816894531"></path><path stroke-linecap="round" stroke-linejoin="round" fill-opacity="0" stroke="rgb(90,35,71)" stroke-opacity="1" stroke-width="1.1" d=" M106.5,-116.09400177001953 C121.71155548095703,-71.76497650146484 99.58231353759766,15.47392463684082 104.38816833496094,38.50206756591797 C98.23994445800781,30.139171600341797 88.23200225830078,20.79400062561035 58.625,4.25 C24.958999633789062,-14.562000274658203 -12.791000366210938,-29.312000274658203 -44.625,-43.25 C-40.875,-80 -17.937000274658203,-104.63700103759766 -9.51200008392334,-125.16999816894531"></path></g><g opacity="1" transform="matrix(1,0,0,1,0,0)"><path fill="rgb(255,255,255)" fill-opacity="1" d=" M103.5,-116.34400177001953 C115.5,-77.125 90.81929016113281,2.000441551208496 103.63919830322266,37.440208435058594 C97.80780792236328,31.491695404052734 85.7691421508789,40.56388854980469 53.3111457824707,30.725889205932617 C9.18614387512207,17.350889205932617 -22.128999710083008,-16.29599952697754 -44.00400161743164,-43.108001708984375 C-39.01599884033203,-78.70500183105469 -17.4689998626709,-103.49800109863281 -9.043999671936035,-124.03099822998047"></path></g><g opacity="1" transform="matrix(1,0,0,1,0,0)"><path fill="rgb(255,255,255)" fill-opacity="1" d=" M13.937999725341797,-162.5 C3.2939999103546143,-151.2209930419922 -7.7870001792907715,-129.13600158691406 -0.06300000101327896,-115.68800354003906 C8.902000427246094,-100.08100128173828 35.88800048828125,-102.89099884033203 53.875,-102.25 C70.16500091552734,-101.66999816894531 98.01899719238281,-103.5469970703125 107.31300354003906,-116.93800354003906 C113.1259994506836,-125.31300354003906 103.04900360107422,-152.35400390625 90.25,-152.875 C73.14600372314453,-153.5709991455078 59.0620002746582,-124.125 53.8120002746582,-117.875 C50.4370002746582,-127.375 41.35200119018555,-143.07899475097656 32,-154 C27.926000595092773,-158.7570037841797 18.236000061035156,-167.05499267578125 13.937999725341797,-162.5z"></path></g></g><g style="display: block;" transform="matrix(0.9810407161712646,0.19380196928977966,-0.19380196928977966,0.9810407161712646,358.7906188964844,421.612548828125)" opacity="1"><g opacity="1" transform="matrix(1,0,0,1,0,0)"><path fill="rgb(255,255,255)" fill-opacity="1" d=" M19.333999633789062,-168.6020050048828 C4.584000110626221,-170.6020050048828 -9.625,-165.25 -25.75,-153.75 C-44.25299835205078,-140.5540008544922 -65.5,-114 -69.625,-85.75 C-73.75,-57.5 -67.25,-43.25 -62.125,-40.875 C-50.80500030517578,-35.62900161743164 -31.20199966430664,-49.80699920654297 -21.25,-61.5 C-11.25,-73.25 2.75,-102.25 4.25,-116.5"></path><path stroke-linecap="round" stroke-linejoin="round" fill-opacity="0" stroke="rgb(90,35,71)" stroke-opacity="1" stroke-width="1.1" d=" M19.333999633789062,-168.6020050048828 C4.584000110626221,-170.6020050048828 -9.625,-165.25 -25.75,-153.75 C-44.25299835205078,-140.5540008544922 -65.5,-114 -69.625,-85.75 C-73.75,-57.5 -67.25,-43.25 -62.125,-40.875 C-50.80500030517578,-35.62900161743164 -31.20199966430664,-49.80699920654297 -21.25,-61.5 C-11.25,-73.25 2.75,-102.25 4.25,-116.5"></path></g><g opacity="1" transform="matrix(1,0,0,1,0,0)"><path stroke-linecap="round" stroke-linejoin="round" fill-opacity="0" stroke="rgb(90,35,71)" stroke-opacity="1" stroke-width="1.1" d=" M-54.25,-121.25 C-39.25,-110 -22.437999725341797,-88.81300354003906 -21.7189998626709,-61.625"></path></g></g><g style="display: block;" transform="matrix(0.9839575290679932,0.1784031093120575,-0.1784031093120575,0.9839575290679932,359.772705078125,420.80072021484375)" opacity="1"><g opacity="1" transform="matrix(1,0,0,1,0,0)"><path fill="rgb(154,59,129)" fill-opacity="1" d=" M-55.875,-121.875 C-37.375,-70.375 -64.00199890136719,-39.38800048828125 -59.875,-40.125 C-56.375,-40.75 -43.875,-40.625 -38.25,-59.125 C-29.753999710083008,-87.06900024414062 -57.709999084472656,-126.98300170898438 -55.875,-121.875z"></path></g><g opacity="1" transform="matrix(1,0,0,1,0,0)"><path fill="rgb(243,172,161)" fill-opacity="1" d=" M-114.7500991821289,-186.70135498046875 C-124.20381927490234,-169.552001953125 -125.25,-131 -114.5,-98.5 C-104.41600036621094,-68.01300048828125 -74.91300201416016,-32.03799819946289 -58.25,-41.25 C-27.5,-58.25 -50,-115.75 -63,-133.25 C-76.48100280761719,-151.39700317382812 -89.68876647949219,-157.66705322265625 -86.71214294433594,-168.897216796875 C-83.95811462402344,-179.32810974121094 -109.57803344726562,-196.10516357421875 -114.7500991821289,-186.70135498046875z"></path></g></g><g style="display: block;" transform="matrix(0.9965147972106934,-0.08341660350561142,0.08341660350561142,0.9965147972106934,402.82550048828125,419.918701171875)" opacity="1"><g opacity="1" transform="matrix(1,0,0,1,0,0)"><path fill="rgb(154,59,129)" fill-opacity="1" d=" M21.25,-153.125 C33.625,-142.93699645996094 44.375,-128.12600708007812 47.25,-120.06300354003906 C47.4270133972168,-119.56695556640625 48.4673957824707,-116.46973419189453 50.2921028137207,-116.23209381103516 C54.439796447753906,-115.69160461425781 57.06306457519531,-116.90982055664062 57.88386154174805,-117.27667236328125 C58.70137023925781,-117.64313507080078 60.29309844970703,-118.34319305419922 60.9379997253418,-119.68800354003906 C66.7509994506836,-131.81300354003906 82.93699645996094,-144.81300354003906 89.375,-150.06300354003906 C64.06199645996094,-139 56.53099822998047,-122.59400177001953 53.90599822998047,-118.34400177001953 C51.84299850463867,-123.71900177001953 44.5629997253418,-140.5 21.25,-153.125z"></path></g><g opacity="1" transform="matrix(1,0,0,1,0,0)"><path fill="rgb(255,255,255)" fill-opacity="1" d=" M20,-166.875 C4.311999797821045,-173.23199462890625 -15.75,-169 -22.75,-161 C-6.875,-168.75 5.75,-162.375 17.875,-155.5 C31.8799991607666,-147.5590057373047 46,-134.56300354003906 53.875,-118.21900177001953 C50.75,-140.968994140625 34.5,-161 20,-166.875z"></path><path stroke-linecap="round" stroke-linejoin="round" fill-opacity="0" stroke="rgb(90,35,71)" stroke-opacity="1" stroke-width="1.1" d=" M20,-166.875 C4.311999797821045,-173.23199462890625 -15.75,-169 -22.75,-161 C-6.875,-168.75 5.75,-162.375 17.875,-155.5 C31.8799991607666,-147.5590057373047 46,-134.56300354003906 53.875,-118.21900177001953 C50.75,-140.968994140625 34.5,-161 20,-166.875z"></path></g><g opacity="1" transform="matrix(1,0,0,1,0,0)"><path fill="rgb(255,255,255)" fill-opacity="1" d=" M94.25,-163.625 C75.39165496826172,-155.12896728515625 60.24319076538086,-137.6591033935547 54,-118.28099822998047 C62.9379997253418,-131.875 76.60279846191406,-143.99891662597656 92.09345245361328,-151.68809509277344 C103.80403900146484,-157.50759887695312 117.09900665283203,-162.7971954345703 131.5536651611328,-158.38768005371094 C126.27884674072266,-167.70994567871094 107.76531982421875,-169.73326110839844 94.25,-163.625z"></path><path stroke-linecap="round" stroke-linejoin="round" fill-opacity="0" stroke="rgb(90,35,71)" stroke-opacity="1" stroke-width="1.1" d=" M94.25,-163.625 C75.39165496826172,-155.12896728515625 60.24319076538086,-137.6591033935547 54,-118.28099822998047 C62.9379997253418,-131.875 76.60279846191406,-143.99891662597656 92.09345245361328,-151.68809509277344 C103.80403900146484,-157.50759887695312 117.09900665283203,-162.7971954345703 131.5536651611328,-158.38768005371094 C126.27884674072266,-167.70994567871094 107.76531982421875,-169.73326110839844 94.25,-163.625z"></path></g></g><g style="display: block;" transform="matrix(0.9477720856666565,-0.3189483880996704,0.3189483880996704,0.9477720856666565,433.88543701171875,427.8660583496094)" opacity="1"><g opacity="1" transform="matrix(1,0,0,1,0,0)"><g opacity="1" transform="matrix(1,0,0,1,0,0)"><path fill="rgb(154,59,129)" fill-opacity="1" d=" M48.3129997253418,-117.5 C46.125,-112 49.90999984741211,-107.06999969482422 51.3129997253418,-106.34400177001953 C52.000999450683594,-105.96900177001953 55.5260009765625,-105.84300231933594 56.59400177001953,-106.31300354003906 C58.15700149536133,-107.0009994506836 61.3129997253418,-112.84400177001953 59.59400177001953,-116.96900177001953 C55.53099822998047,-115.25 50.3129997253418,-116.65599822998047 48.3129997253418,-117.5z"></path></g><g opacity="1" transform="matrix(1,0,0,1,0,0)"><path fill="rgb(154,59,129)" fill-opacity="1" d=" M46.5,-116.18800354003906 C37.754398345947266,-110.9522476196289 32.04955291748047,-100.64901733398438 29.882129669189453,-87.7686996459961 C27.416669845581055,-73.09773254394531 33.31999206542969,-58.3376350402832 34.72805404663086,-58.409122467041016 C37.6697883605957,-69.48412322998047 40.090023040771484,-76.06111145019531 42.919921875,-84.96284484863281 C45.749820709228516,-93.86457824707031 48.34443664550781,-100.3412857055664 50.375,-105.375 C49.21900177001953,-106.625 45.9370002746582,-109.40699768066406 46.5,-116.18800354003906z"></path></g><g opacity="1" transform="matrix(1,0,0,1,0,0)"><path fill="rgb(154,59,129)" fill-opacity="1" d=" M61.14781188964844,-116.33323669433594 C61.54925537109375,-113.23236083984375 61.04408645629883,-108.28502655029297 57.6879997253418,-105.5 C61.596092224121094,-99.64449310302734 62.4891242980957,-91.57881927490234 64.18180847167969,-84.28504180908203 C66.38153839111328,-75.3973159790039 73.89656829833984,-64.8044204711914 77.44647216796875,-61.56121063232422 C75.5887222290039,-66.63911437988281 78.32231903076172,-80.06685638427734 76.40422821044922,-92.8663101196289 C74.53279113769531,-105.4043197631836 68.79838562011719,-112.7236328125 61.14781188964844,-116.33323669433594z"></path></g></g></g><g style="display: block;" transform="matrix(0.24919633567333221,0.020029913634061813,-0.020029913634061813,0.24919633567333221,382.2283630371094,396.2535095214844)" opacity="1"><g opacity="1" transform="matrix(1,0,0,1,0,0)"><path fill="rgb(90,35,71)" fill-opacity="1" d=" M806.75,-373 C772.5150146484375,-362.55999755859375 753.25,-341 755.75,-327 C763.3350219726562,-284.5260009765625 867.791015625,-294.39300537109375 869.625,-337.5 C870.375,-355.125 842,-383.75 806.75,-373z"></path></g><g opacity="1" transform="matrix(1,0,0,1,0,0)"><path fill="rgb(243,172,161)" fill-opacity="1" d=" M628.5,-833 C604.052001953125,-870.9089965820312 493.9949951171875,-808.6170043945312 505.5,-765 C539,-638 592.2169799804688,-518.9719848632812 624.5,-457.75 C655.083984375,-399.7510070800781 690.6179809570312,-330.0880126953125 726.7119750976562,-295.8999938964844 C753,-271 828.5,-229.5 850.75,-324.5 C882.510986328125,-460.10699462890625 811.5,-568 770.25,-635.5 C726.4630126953125,-707.1519775390625 673,-764 628.5,-833z"></path></g><g opacity="1" transform="matrix(1,0,0,1,0,0)"><path fill="rgb(154,59,129)" fill-opacity="1" d=" M628.25,-451.75 C684.75,-349.5 739,-285.25 845.25,-306.75 C849.75,-317.75 856,-343.875 856.25,-353.875 C823.5,-339.125 693.25,-353.75 628.25,-451.75z"></path></g><g opacity="1" transform="matrix(1,0,0,1,0,0)"><path fill="rgb(255,255,255)" fill-opacity="1" d=" M647,-418.75 C686.5,-339.25 736.75,-258.25 772,-245.75 C817.4580078125,-229.6300048828125 873,-293.5 868.25,-338.25 C837,-295 713,-322.5 647,-418.75z"></path></g><g opacity="1" transform="matrix(1,0,0,1,0,0)"><path stroke-linecap="round" stroke-linejoin="round" fill-opacity="0" stroke="rgb(90,35,71)" stroke-opacity="1" stroke-width="4.5" d=" M632.125,-443.625 C659.25,-391.5 705.75,-291.75 764.25,-249.5 C786.5009765625,-233.42999267578125 823.718994140625,-251.2530059814453 842.25,-271.5 C855.75,-286.25 869.5,-320.25 868,-338"></path></g></g><g style="display: block;" transform="matrix(0.24919633567333221,0.020029913634061813,-0.020029913634061813,0.24919633567333221,382.2283630371094,396.2535095214844)" opacity="1"><g opacity="1" transform="matrix(1,0,0,1,0,0)"><path fill="rgb(243,172,161)" fill-opacity="1" d=" M567.5,-933.5 C540.676025390625,-950.3309936523438 481.66900634765625,-918.4920043945312 485,-887 C490.5,-835 495,-799.5 505,-767 C518.4539794921875,-723.2739868164062 648.2899780273438,-803.9310302734375 624.75,-838.75 C600.75,-874.25 593,-917.5 567.5,-933.5z"></path></g></g><g style="display: block;" transform="matrix(0.24880947172641754,0.024376006796956062,-0.024376006796956062,0.24880947172641754,379.1407775878906,390.54986572265625)" opacity="1"><g opacity="1" transform="matrix(1,0,0,1,0,0)"><path fill="rgb(90,35,71)" fill-opacity="1" d=" M398.875,-888.5 C389.5950012207031,-889.6729736328125 383.5710144042969,-875.2650146484375 386.875,-859.75 C389.75,-846.25 398.75,-837.125 407,-840.5 C417.4519958496094,-844.7760009765625 415,-860.25 413.875,-867.125 C412.75,-874 409.75,-887.125 398.875,-888.5z"></path></g></g><g style="display: block;" transform="matrix(0.24880947172641754,0.024376006796956062,-0.024376006796956062,0.24880947172641754,377.7478332519531,390.6645812988281)" opacity="1"><g opacity="1" transform="matrix(1,0,0,1,0,0)"><path fill="rgb(154,59,129)" fill-opacity="1" d=" M613,-952 C575.75,-942.5 464.375,-902.75 408.25,-883.25 C400.4200134277344,-880.530029296875 407.6340026855469,-848.3289794921875 413.75,-848.75 C480.875,-853.375 583.5,-861.5 634.75,-867.25 C637.75,-893 622.5,-934.25 613,-952z"></path></g></g><g style="display: block;" transform="matrix(0.24880947172641754,0.024376006796956062,-0.024376006796956062,0.24880947172641754,377.74761962890625,390.66473388671875)" opacity="1"><g opacity="1" transform="matrix(1,0,0,1,0,0)"><path fill="rgb(255,206,44)" fill-opacity="1" d=" M773.75,-1023.625 C736.7750244140625,-1009.1119995117188 614.5640258789062,-962.5009765625 610.875,-960.875 C603.5,-957.625 615.25,-872 636.875,-857.75 C685.5,-857.5 783,-859.25 812.75,-860 C829,-899 799.25,-1030.75 773.75,-1023.625z"></path></g><g opacity="1" transform="matrix(1,0,0,1,0,0)"><path stroke-linecap="round" stroke-linejoin="round" fill-opacity="0" stroke="rgb(255,255,255)" stroke-opacity="1" stroke-width="6" d=" M635.0050048828125,-966.8610229492188 C631.89697265625,-941.343994140625 643.9739990234375,-882.4099731445312 659.718017578125,-861.1220092773438"></path></g></g><g style="display: block;" transform="matrix(0.24880947172641754,0.024376006796956062,-0.024376006796956062,0.24880947172641754,378.3696594238281,390.7257080078125)" opacity="1"><g opacity="1" transform="matrix(1,0,0,1,0,0)"><path fill="rgb(154,59,129)" fill-opacity="1" d=" M774.625,-1030.375 C741.625,-987.125 749.1290283203125,-897.4719848632812 771.1290283203125,-859.4719848632812 C778.3569946289062,-858.9199829101562 804.2559814453125,-860.1290283203125 808.6309814453125,-858.7540283203125 C775.8809814453125,-905.2540283203125 771.875,-1009.125 774.625,-1030.375z"></path></g></g><g style="display: block;" transform="matrix(0.24880947172641754,0.024376006796956062,-0.024376006796956062,0.24880947172641754,378.12091064453125,390.7012939453125)" opacity="1"><g opacity="1" transform="matrix(1,0,0,1,0,0)"><path fill="rgb(255,206,44)" fill-opacity="1" d=" M992,-1109.5 C937.75,-1087.75 811.75,-1047.5 775.75,-1030.5 C746.5,-978.75 781,-863 813,-854 C873,-854.5 974,-860 1038.5,-861.5 C1081.5,-934 1026.5,-1099 992,-1109.5z"></path></g><g opacity="1" transform="matrix(1,0,0,1,0,0)"><path stroke-linecap="round" stroke-linejoin="round" fill-opacity="0" stroke="rgb(255,255,255)" stroke-opacity="1" stroke-width="6" d=" M939.6630249023438,-1086.31201171875 C906.1079711914062,-1039.126953125 930.1719970703125,-892.7579956054688 987.3200073242188,-863.1920166015625"></path></g><g opacity="1" transform="matrix(1,0,0,1,0,0)"><path stroke-linecap="round" stroke-linejoin="round" fill-opacity="0" stroke="rgb(255,255,255)" stroke-opacity="1" stroke-width="6" d=" M808.1019897460938,-1039.83203125 C783.427978515625,-981.1939697265625 805.1510009765625,-896.0640258789062 841.489990234375,-857.7650146484375"></path></g></g><g style="display: block;" transform="matrix(0.24880947172641754,0.024376006796956062,-0.024376006796956062,0.24880947172641754,376.2861328125,387.6327819824219)" opacity="1"><g opacity="1" transform="matrix(0.9816271662712097,-0.1908089965581894,0.1908089965581894,0.9816271662712097,1031.75,-975.75)"><path fill="rgb(154,59,129)" fill-opacity="1" d=" M0,-127.75 C30.723997116088867,-127.75 55.669498443603516,-70.5052261352539 55.669498443603516,0 C55.669498443603516,70.5052261352539 30.723997116088867,127.75 0,127.75 C-30.723997116088867,127.75 -55.669498443603516,70.5052261352539 -55.669498443603516,0 C-55.669498443603516,-70.5052261352539 -30.723997116088867,-127.75 0,-127.75z"></path></g><g opacity="1" transform="matrix(0.9816271662712097,-0.1908089965581894,0.1908089965581894,0.9816271662712097,1033.25,-975.75)"><path fill="rgb(101,175,239)" fill-opacity="1" d=" M0,-111.75 C22.721446990966797,-111.75 41.169498443603516,-61.67482376098633 41.169498443603516,0 C41.169498443603516,61.67482376098633 22.721446990966797,111.75 0,111.75 C-22.721446990966797,111.75 -41.169498443603516,61.67482376098633 -41.169498443603516,0 C-41.169498443603516,-61.67482376098633 -22.721446990966797,-111.75 0,-111.75z"></path></g><g opacity="1" transform="matrix(0.9816271662712097,-0.1908089965581894,0.1908089965581894,0.9816271662712097,1033.25,-975.75)"><path stroke-linecap="round" stroke-linejoin="round" fill-opacity="0" stroke="rgb(255,255,255)" stroke-opacity="1" stroke-width="6" d=" M5.058000087738037,-95.71299743652344 C14.23799991607666,-90.06500244140625 21.893999099731445,-69.32499694824219 25.746999740600586,-41.28300094604492"></path></g><g opacity="1" transform="matrix(0.9816271662712097,-0.1908089965581894,0.1908089965581894,0.9816271662712097,1033.25,-975.75)"><path stroke-linecap="round" stroke-linejoin="round" fill-opacity="0" stroke="rgb(255,255,255)" stroke-opacity="1" stroke-width="6" d=" M28.05500030517578,-15.892000198364258 C28.30299949645996,-10.720000267028809 28.433000564575195,-5.410999774932861 28.433000564575195,0 C28.433000564575195,0.36899998784065247 28.43199920654297,0.7369999885559082 28.430999755859375,1.1050000190734863"></path></g></g><g style="display: block;" transform="matrix(0.2832864224910736,0.02277000993490219,-0.02277000993490219,0.2832864224910736,533.84716796875,176.35597229003906)" opacity="1"><g opacity="1" transform="matrix(1,0,0,1,0,0)"><path fill="rgb(243,172,161)" fill-opacity="1" d=" M21.76799964904785,-32.17100143432617 C17.604999542236328,-37.20399856567383 6.9120001792907715,-37.321998596191406 -0.5860000252723694,-26.618999481201172 C-3.3340001106262207,-28.323999404907227 -16.323999404907227,-33.5890007019043 -25.020999908447266,-19.066999435424805 C-43.301998138427734,-22.57699966430664 -50.62200164794922,-12.107000350952148 -52.48099899291992,-1.524999976158142 C-54.76900100708008,11.503999710083008 -52.29899978637695,30.301000595092773 -45.051998138427734,42.527000427246094 C-36.926998138427734,56.23500061035156 -30.163000106811523,53.624000549316406 -29.518999099731445,24.50200080871582 C-27.231000900268555,31.302000045776367 -19.68600082397461,48.57600021362305 -11.607000350952148,47.202999114990234 C-4.519999980926514,45.999000549316406 -3.4570000171661377,30.951000213623047 -1.7519999742507935,22.80500030517578 C0.3100000023841858,29.509000778198242 3.2869999408721924,41.755001068115234 10.454000473022461,40.457000732421875 C16.881999969482422,39.292999267578125 19.136999130249023,25.71500015258789 21.520999908447266,17.857999801635742 C23.538000106811523,27.429000854492188 27.243999481201172,32.54800033569336 30.572999954223633,28.98200035095215 C42.4630012512207,16.24799919128418 51.007999420166016,-5.860000133514404 48.29999923706055,-23.437999725341797 C47.02199935913086,-31.73200035095215 40.097999572753906,-44.08700180053711 21.76799964904785,-32.17100143432617z"></path></g><g opacity="1" transform="matrix(1,0,0,1,0,0)"><path stroke-linecap="round" stroke-linejoin="round" fill-opacity="0" stroke="rgb(154,59,129)" stroke-opacity="1" stroke-width="3.5" d=" M-26.582000732421875,-18.69300079345703 C-30.121000289916992,-14.545999526977539 -35.17599868774414,11.331999778747559 -29.31800079345703,30.618000030517578"></path></g><g opacity="1" transform="matrix(1,0,0,1,0,0)"><path stroke-linecap="round" stroke-linejoin="round" fill-opacity="0" stroke="rgb(154,59,129)" stroke-opacity="1" stroke-width="3.5" d=" M-1.246000051498413,-27.766000747680664 C-7.47599983215332,-15.409000396728516 -7.771999835968018,14.295000076293945 -1.8880000114440918,28.53700065612793"></path></g><g opacity="1" transform="matrix(1,0,0,1,0,0)"><path stroke-linecap="round" stroke-linejoin="round" fill-opacity="0" stroke="rgb(154,59,129)" stroke-opacity="1" stroke-width="3.5" d=" M21.834999084472656,-32.36800003051758 C18.826000213623047,-22.743999481201172 15.78499984741211,-0.8550000190734863 20.952999114990234,22.80900001525879"></path></g></g><g style="display: block;" transform="matrix(0.2832864224910736,0.02277000993490219,-0.02277000993490219,0.2832864224910736,519.6249389648438,191.786376953125)" opacity="1"><g opacity="1" transform="matrix(1,0,0,1,0,0)"><path fill="rgb(244,173,162)" fill-opacity="1" d=" M38.744998931884766,7.669000148773193 C58.39500045776367,16.417999267578125 42.88800048828125,75.18199920654297 21.975000381469727,60.582000732421875 C1.062000036239624,45.981998443603516 -25.53499984741211,8.888999938964844 -32.89500045776367,-12.571000099182129 C-47.255001068115234,-54.33100128173828 -32.255001068115234,-42.33100128173828 -19.2549991607666,-30.33099937438965 C-12.258999824523926,-24.020999908447266 -4.914000034332275,-18.107999801635742 2.744999885559082,-12.621000289916992 C2.744999885559082,-12.621000289916992 19.094999313354492,-1.0800000429153442 38.744998931884766,7.669000148773193z"></path></g><g opacity="1" transform="matrix(1,0,0,1,0,0)"><path stroke-linecap="round" stroke-linejoin="round" fill-opacity="0" stroke="rgb(154,59,129)" stroke-opacity="1" stroke-width="3" d=" M-3.8949999809265137,-19.551000595092773 C18.77400016784668,6.617000102996826 42.40299987792969,-1.4600000381469727 57.874000549316406,21.326000213623047"></path></g></g><g style="display: block;" transform="matrix(0.2199362963438034,0.005293599329888821,-0.005293599329888821,0.2199362963438034,406.4142761230469,371.2160949707031)" opacity="1"><g opacity="1" transform="matrix(1,0,0,1,0,0)"><path fill="rgb(249,79,70)" fill-opacity="1" d=" M-477,-1179 C-560.9329223632812,-1160.519287109375 -700.9243774414062,-1098.3004150390625 -884.310546875,-1105.61962890625 C-1064.4765625,-1114.77197265625 -1195.46533203125,-1079.5482177734375 -1298.522705078125,-1040.727294921875 C-1171.9759521484375,-1027.1561279296875 -1076.296142578125,-1018.60400390625 -924.4140014648438,-968.4989013671875 C-724.77197265625,-900.55615234375 -559.6363525390625,-921.4545288085938 -476,-907 C-475,-964 -478,-1082 -477,-1179z"></path></g></g><g style="display: block;" transform="matrix(0.9991382956504822,0.04150550439953804,-0.04150550439953804,0.9991382956504822,377.4541931152344,409.7205810546875)" opacity="1"><g opacity="1" transform="matrix(1,0,0,1,0,0)"><path stroke-linecap="round" stroke-linejoin="round" fill-opacity="0" stroke="rgb(255,207,45)" stroke-opacity="1" stroke-width="7.2" d=" M-83,-317.5 C-76.16699981689453,-213.9720001220703 -75.04399871826172,-77.7959976196289 -76.66600036621094,58.97999954223633"></path></g></g><g style="display: block;" transform="matrix(0.9995163083076477,-0.03109993226826191,0.03109993226826191,0.9995163083076477,397.3282165527344,403.1808776855469)" opacity="1"><g opacity="1" transform="matrix(1,0,0,1,0,0)"><g opacity="1" transform="matrix(1,0,0,1,0,0)"><path fill="rgb(243,172,161)" fill-opacity="1" d=" M-78.81300354003906,-210.75 C-85.65699768066406,-212.593994140625 -93.6520004272461,-209.1699981689453 -96.75,-207 C-104.66799926757812,-201.4530029296875 -112.125,-192.625 -114.875,-185.125 C-118.58399963378906,-175.00999450683594 -95.87339782714844,-158.97140502929688 -88.43927764892578,-168.13223266601562 C-85.15908813476562,-172.20509338378906 -78.75,-173.56300354003906 -72.5,-177.06300354003906 C-68.7020034790039,-179.19000244140625 -70.30899810791016,-183.68499755859375 -70.81300354003906,-185.875 C-69.43800354003906,-188.125 -70.78099822998047,-191.281005859375 -72.53099822998047,-193.031005859375 C-71.03099822998047,-195.531005859375 -71.56300354003906,-198.18800354003906 -73.06300354003906,-199.68800354003906 C-71.75,-204.25100708007812 -76.63500213623047,-210.16299438476562 -78.81300354003906,-210.75z"></path></g><g opacity="1" transform="matrix(1,0,0,1,0,0)"><path fill="rgb(243,172,161)" fill-opacity="1" d=" M-91.31300354003906,-219.18800354003906 C-92.9800033569336,-215.4459991455078 -94,-212.18800354003906 -94.93800354003906,-207.31300354003906 C-95.53600311279297,-204.20399475097656 -86.86399841308594,-205.20399475097656 -86,-208.25 C-84.81199645996094,-212.43800354003906 -88.5,-225.50100708007812 -91.31300354003906,-219.18800354003906z"></path></g><g opacity="1" transform="matrix(1,0,0,1,0,0)"><path fill="rgb(243,172,161)" fill-opacity="1" d=" M-72.375,-185.75 C-75.2552490234375,-185.6012420654297 -76.25499725341797,-176.08399963378906 -73.5,-176.93800354003906 C-69.06199645996094,-178.31300354003906 -66.40084075927734,-180.1514129638672 -64.34150695800781,-182.06431579589844 C-59.10152816772461,-186.93202209472656 -68.54460906982422,-185.93589782714844 -72.375,-185.75z"></path></g><g opacity="1" transform="matrix(1,0,0,1,0,0)"><path stroke-linecap="round" stroke-linejoin="round" fill-opacity="0" stroke="rgb(154,59,129)" stroke-opacity="1" stroke-width="1.1" d=" M-70.875,-185.81300354003906 C-72.96900177001953,-185.81300354003906 -78.03199768066406,-184.843994140625 -79.56300354003906,-183.968994140625"></path></g><g opacity="1" transform="matrix(1,0,0,1,0,0)"><path stroke-linecap="round" stroke-linejoin="round" fill-opacity="0" stroke="rgb(154,59,129)" stroke-opacity="1" stroke-width="1.1" d=" M-72.53099822998047,-193.093994140625 C-74.15599822998047,-193.53199768066406 -78.375,-194.31300354003906 -82.03099822998047,-193.68800354003906"></path></g><g opacity="1" transform="matrix(1,0,0,1,0,0)"><path stroke-linecap="round" stroke-linejoin="round" fill-opacity="0" stroke="rgb(154,59,129)" stroke-opacity="1" stroke-width="1.1" d=" M-73.125,-199.718994140625 C-75.53099822998047,-200.593994140625 -80.18699645996094,-201.31199645996094 -82.40599822998047,-201.375"></path></g><g opacity="1" transform="matrix(1,0,0,1,0,0)"><path stroke-linecap="round" stroke-linejoin="round" fill-opacity="0" stroke="rgb(154,59,129)" stroke-opacity="1" stroke-width="1.1" d=" M-94.78099822998047,-208.218994140625 C-92.93699645996094,-209.31300354003906 -88.57599639892578,-211.08399963378906 -86.16999816894531,-211.02099609375"></path></g></g></g></g></svg>